0
SECTION
2
HEADER
9
$INSUNITS
70
4
9
$ACADVER
1
AC1014
9
$HANDSEED
5
FFFF
0
ENDSEC
0
SECTION
2
TABLES
0
TABLE
2
VPORT
5
8
100
AcDbSymbolTable
0
ENDTAB
0
TABLE
2
LTYPE
5
5
100
AcDbSymbolTable
0
LTYPE
5
14
100
AcDbSymbolTableRecord
100
AcDbLinetypeTableRecord
2
BYBLOCK
70
0
0
LTYPE
5
15
100
AcDbSymbolTableRecord
100
AcDbLinetypeTableRecord
2
BYLAYER
70
0
0
ENDTAB
0
TABLE
2
LAYER
5
2
100
AcDbSymbolTable
70
2
0
LAYER
5
50
100
AcDbSymbolTableRecord
100
AcDbLayerTableRecord
2
0
70
0
6
CONTINUOUS
0
ENDTAB
0
TABLE
2
STYLE
5
3
100
AcDbSymbolTable
70
1
0
STYLE
5
11
100
AcDbSymbolTableRecord
100
AcDbTextStyleTableRecord
2
STANDARD
70
0
0
ENDTAB
0
TABLE
2
VIEW
5
6
100
AcDbSymbolTable
70
0
0
ENDTAB
0
TABLE
2
UCS
5
7
100
AcDbSymbolTable
70
0
0
ENDTAB
0
TABLE
2
APPID
5
9
100
AcDbSymbolTable
70
2
0
APPID
5
12
100
AcDbSymbolTableRecord
100
AcDbRegAppTableRecord
2
ACAD
70
0
0
ENDTAB
0
TABLE
2
DIMSTYLE
5
A
100
AcDbSymbolTable
70
1
0
ENDTAB
0
TABLE
2
BLOCK_RECORD
5
1
100
AcDbSymbolTable
70
1
0
BLOCK_RECORD
5
1F
100
AcDbSymbolTableRecord
100
AcDbBlockTableRecord
2
*MODEL_SPACE
0
BLOCK_RECORD
5
1B
100
AcDbSymbolTableRecord
100
AcDbBlockTableRecord
2
*PAPER_SPACE
0
ENDTAB
0
ENDSEC
0
SECTION
2
BLOCKS
0
BLOCK
5
20
100
AcDbEntity
100
AcDbBlockBegin
2
*MODEL_SPACE
0
ENDBLK
5
21
100
AcDbEntity
100
AcDbBlockEnd
0
BLOCK
5
1C
100
AcDbEntity
100
AcDbBlockBegin
2
*PAPER_SPACE
0
ENDBLK
5
1D
100
AcDbEntity
100
AcDbBlockEnd
0
ENDSEC
0
SECTION
2
ENTITIES
0
ARC
5
100
100
AcDbEntity
8
0
100
AcDbCircle
10
-76.593998493470082
20
-104.69714903906382
30
1.1390840485214793e-22
40
0.99999999733677569
210
0
220
-0
230
1
100
AcDbArc
50
89.999999999988603
51
180
0
LWPOLYLINE
5
101
100
AcDbEntity
8
0
100
AcDbPolyline
90
4
70
1
43
0.0
10
-123.39744970310525
20
-91.902249910725104
42
0.99999999999999989
10
-123.39744970310525
20
-95.002249910725055
10
-118.39744970310525
20
-95.002249910725055
42
0.99999999999999989
10
-118.39744970310564
20
-91.902249910725104
0
LWPOLYLINE
5
102
100
AcDbEntity
8
0
100
AcDbPolyline
90
4
70
1
43
0.0
10
-150.42981008313592
20
-117.64064355944981
42
0.99999999999999989
10
-151.62981008313594
20
-117.64064355944979
10
-151.62981008313591
20
-123.44064355944978
42
0.99999999999999989
10
-150.42981008313592
20
-123.44064355944978
0
LWPOLYLINE
5
103
100
AcDbEntity
8
0
100
AcDbPolyline
90
4
70
1
43
0.0
10
-118.39744970310562
20
-121.00224997996708
10
-123.39744970310525
20
-121.00224997996708
42
-0.99999999999999989
10
-123.39744970310525
20
-117.90224997996704
10
-118.39744970310562
20
-117.90224997996704
42
-0.99999999999999989
0
LWPOLYLINE
5
104
100
AcDbEntity
8
0
100
AcDbPolyline
90
4
70
1
43
0.0
10
-146.42981008313592
20
-123.44064355944973
10
-146.42981008313592
20
-117.64064355944981
42
0.99999999999999989
10
-147.62981008313591
20
-117.64064355944981
10
-147.62981008313591
20
-123.44064355944978
42
0.99999999999999989
0
LINE
5
105
100
AcDbEntity
8
0
100
AcDbLine
10
-138.99894805933738
20
-109.09964352048469
30
-2.6461316055318055e-28
11
-153.02981010348554
21
-109.09964355785195
31
1.2929170564839801e-22
0
ARC
5
106
100
AcDbEntity
8
0
100
AcDbCircle
10
-134.99894810823022
20
-90.740558294476429
30
1.2929134422737563e-22
40
1.9999999999999396
210
0
220
0
230
1
100
AcDbArc
50
90.000000000003254
51
180
0
LINE
5
107
100
AcDbEntity
8
0
100
AcDbLine
10
-87.847449772339246
20
-120.68935923684836
30
4.631615954808818e-29
11
-87.847556551838707
21
-119.19739955724395
31
2.4124231043976758e-21
0
LINE
5
108
100
AcDbEntity
8
0
100
AcDbLine
10
-70.029810152379994
20
-88.74055829447299
30
4.4408920985006254e-15
11
-134.99894810823034
21
-88.740558294476486
31
1.2929134422737563e-22
0
LWPOLYLINE
5
109
100
AcDbEntity
8
0
100
AcDbPolyline
90
4
70
1
43
0.0
10
-92.397449772340195
20
-117.90224997995706
10
-97.397449772340181
20
-117.90224997996029
42
0.99999999999999989
10
-97.397449772337836
20
-121.00224997996021
10
-92.397449772338177
20
-121.00224997995703
42
0.99999999999999989
0
ARC
5
110
100
AcDbEntity
8
0
100
AcDbCircle
10
-155.02981008313589
20
-123.44064355944978
30
0
40
0.60000000000000497
210
0
220
0
230
1
100
AcDbArc
50
-90
51
0
0
LWPOLYLINE
5
111
100
AcDbEntity
8
0
100
AcDbPolyline
90
4
70
1
43
0.0
10
-145.62981008313591
20
-123.44064355944978
42
0.99999999999999989
10
-144.42981008313592
20
-123.44064355944974
10
-144.42981008313592
20
-117.64064355944981
42
0.99999999999999989
10
-145.62981008313591
20
-117.64064355944981
0
LWPOLYLINE
5
112
100
AcDbEntity
8
0
100
AcDbPolyline
90
4
70
1
43
0.0
10
-152.42981008313592
20
-117.64064355944981
42
0.99999999999999989
10
-153.62981008313594
20
-117.64064355944984
10
-153.62981008313591
20
-123.44064355944978
42
0.99999999999999989
10
-152.42981008313592
20
-123.44064355944978
0
LINE
5
113
100
AcDbEntity
8
0
100
AcDbLine
10
-95.292649690485547
20
-124.18935924735494
30
4.7331654313260714e-29
11
-91.347449763018147
21
-124.1893592368483
31
4.631615954808818e-29
0
ARC
5
114
100
AcDbEntity
8
0
100
AcDbCircle
10
-91.347449772339132
20
-120.68935923684836
30
4.631615954808818e-29
40
3.4999999999999609
210
0
220
0
230
1
100
AcDbArc
50
-89.99999984741342
51
0
0
ARC
5
115
100
AcDbEntity
8
0
100
AcDbCircle
10
-78.593998464174859
20
-114.69714904705333
30
1.2929175818211295e-22
40
1.0000000000001208
210
0
220
0
230
1
100
AcDbArc
50
-89.999999847407466
51
0
0
ARC
5
116
100
AcDbEntity
8
0
100
AcDbCircle
10
-153.02981009815912
20
-111.09964355785193
30
1.2929170564839801e-22
40
1.9999999999999574
210
0
220
0
230
1
100
AcDbArc
50
90.0000001525909
51
180
0
ARC
5
117
100
AcDbEntity
8
0
100
AcDbCircle
10
-84.347556560803099
20
-119.19714906237604
30
2.4124231043976758e-21
40
3.4999999999995701
210
0
220
0
230
1
100
AcDbArc
50
90.000000152586836
51
180.00410065678128
0
LWPOLYLINE
5
118
100
AcDbEntity
8
0
100
AcDbPolyline
90
4
70
1
43
0.0
10
-97.397449772356708
20
-91.902249910718282
42
0.99999999999999989
10
-97.39744977235506
20
-95.002249910718234
10
-92.39744977235506
20
-95.002249910715022
42
0.99999999999999989
10
-92.397449772357049
20
-91.902249910715
0
ARC
5
119
100
AcDbEntity
8
0
100
AcDbCircle
10
-138.99894806466386
20
-107.09964352048462
30
-2.6461316055318055e-28
40
2.0000000000000817
210
0
220
0
230
1
100
AcDbArc
50
-89.999999847407466
51
0
0
LINE
5
120
100
AcDbEntity
8
0
100
AcDbLine
10
-84.347556570124098
20
-115.69714906237648
30
2.4124231043976758e-21
11
-78.593998461511617
21
-115.69714904705344
31
1.2929175818211295e-22
0
LINE
5
121
100
AcDbEntity
8
0
100
AcDbLine
10
-136.99894806466378
20
-107.09964351515849
30
0
11
-136.99894810823022
21
-90.740558299802728
31
-1.0575471819747779e-21
0
CIRCLE
5
122
100
AcDbEntity
8
0
100
AcDbCircle
10
-83.699998129159226
20
-96.200003249943236
30
0
40
1.5499999999999894
210
0
220
0
230
1
0
LWPOLYLINE
5
123
100
AcDbEntity
8
0
100
AcDbPolyline
90
4
70
1
43
0.0
10
-143.62981008313591
20
-117.64064355944981
10
-143.62981008313591
20
-123.44064355944978
42
0.99999999999999989
10
-142.42981008313595
20
-123.44064355944978
10
-142.42981008313592
20
-117.64064355944981
42
0.99999999999999989
0
LWPOLYLINE
5
124
100
AcDbEntity
8
0
100
AcDbPolyline
90
4
70
1
43
0.0
10
-149.62981008313591
20
-123.44064355944978
42
0.99999999999999989
10
-148.42981008313592
20
-123.44064355944978
10
-148.42981008313592
20
-117.64064355944981
42
0.99999999999999989
10
-149.62981008313591
20
-117.64064355944981
0
LWPOLYLINE
5
125
100
AcDbEntity
8
0
100
AcDbPolyline
90
4
70
1
43
0.0
10
-110.61298311613484
20
-117.55704994592173
42
-0.99999999999999989
10
-110.61298311613484
20
-95.357049945921716
10
-105.61298311613484
20
-95.35704994592173
42
-0.99999999999999989
10
-105.61298311613484
20
-117.55704994592172
0
CIRCLE
5
126
100
AcDbEntity
8
0
100
AcDbCircle
10
-132.18352072886751
20
-93.085584343869584
30
0
40
1.3
210
0
220
0
230
1
0
LINE
5
127
100
AcDbEntity
8
0
100
AcDbLine
10
-155.02981009815909
20
-111.09964355785193
30
1.2929170564839801e-22
11
-155.02981008313589
21
-117.0406435594498
31
0
0
CIRCLE
5
128
100
AcDbEntity
8
0
100
AcDbCircle
10
-147.52980946658849
20
-126.76913372692965
30
0
40
1.4999999999999929
210
0
220
0
230
1
0
ARC
5
129
100
AcDbEntity
8
0
100
AcDbCircle
10
-70.029810123200122
20
-101.69714902424516
30
2.5860095711709239e-22
40
2.0000000000000995
210
0
220
0
230
1
100
AcDbArc
50
-89.999999847409498
51
0
0
CIRCLE
5
130
100
AcDbEntity
8
0
100
AcDbCircle
10
-132.18352072886751
20
-109.67157716607211
30
-5.2854678517936964e-23
40
1.3
210
0
220
0
230
1
0
LINE
5
131
100
AcDbEntity
8
0
100
AcDbLine
10
-155.02981005197805
20
-128.44001671118463
30
1.1209832280166915e-21
11
-155.02981008313589
21
-124.04064355944979
31
0
0
LWPOLYLINE
5
132
100
AcDbEntity
8
0
100
AcDbPolyline
90
4
70
1
43
0.0
10
-140.42981008313592
20
-123.44064355944978
10
-140.42981008313592
20
-117.64064355944981
42
0.99999999999999989
10
-141.62981008313594
20
-117.64064355944981
10
-141.62981008313591
20
-123.44064355944978
42
0.99999999999999989
0
ARC
5
133
100
AcDbEntity
8
0
100
AcDbCircle
10
-153.02981005197805
20
-128.44001671118463
30
1.1209832280166915e-21
40
1.9999999999999929
210
0
220
0
230
1
100
AcDbArc
50
180
51
270.00000015259093
0
ARC
5
134
100
AcDbEntity
8
0
100
AcDbCircle
10
-155.02981008313589
20
-117.64064355944981
30
0
40
0.59999999999998721
210
0
220
0
230
1
100
AcDbArc
50
0
51
90
0
LINE
5
135
100
AcDbEntity
8
0
100
AcDbLine
10
-77.593998486812055
20
-106.19714904172704
30
1.1476303560104747e-22
11
-80.133998486812033
21
-106.19714904849167
31
1.1476303560104747e-22
0
CIRCLE
5
136
100
AcDbEntity
8
0
100
AcDbCircle
10
-147.54139021676127
20
-114.76951611164841
30
0
40
1.5000000000000002
210
0
220
0
230
1
0
LINE
5
137
100
AcDbEntity
8
0
100
AcDbLine
10
-77.593998468169545
20
-113.19714904439022
30
1.2672786596272831e-22
11
-80.133998468169551
21
-113.19714905115477
31
1.2672786596272831e-22
0
LINE
5
138
100
AcDbEntity
8
0
100
AcDbLine
10
-154.42981008313589
20
-123.44064355944978
30
0
11
-154.42981008313592
21
-117.64064355944981
31
0
0
LINE
5
139
100
AcDbEntity
8
0
100
AcDbLine
10
-77.59399849080684
20
-104.69714904172704
30
1.1219914338166271e-22
11
-77.593998486812055
21
-106.19714904172704
31
1.1476303560104747e-22
0
CIRCLE
5
140
100
AcDbEntity
8
0
100
AcDbCircle
10
-71.699998397380114
20
-96.200003249943236
30
0
40
1.5500000000000047
210
0
220
0
230
1
0
LINE
5
141
100
AcDbEntity
8
0
100
AcDbLine
10
-68.029810152379866
20
-90.740558289146577
30
0
11
-68.029810123200022
21
-101.69714901891874
31
2.5860097407044154e-22
0
LINE
5
142
100
AcDbEntity
8
0
100
AcDbLine
10
-70.029810117873708
20
-103.69714902424526
30
2.5860095711709239e-22
11
-76.593998493469883
21
-103.69714904172704
31
1.1390840485214793e-22
0
ARC
5
143
100
AcDbEntity
8
0
100
AcDbCircle
10
-70.029810281577312
20
-90.74055842367045
30
4.4408928133710612e-15
40
2.0000001291974501
210
0
220
-0
230
1
100
AcDbArc
50
3.8181918208328457e-06
51
89.99999629876973
0
LINE
5
144
100
AcDbEntity
8
0
100
AcDbLine
10
-77.593998464174703
20
-114.69714904439022
30
1.29291758182113e-22
11
-77.593998468169545
21
-113.19714904439022
31
1.2672786596272831e-22
0
LINE
5
145
100
AcDbEntity
8
0
100
AcDbLine
10
-80.133998486812033
20
-106.19714904849167
30
1.1476303560104747e-22
11
-80.133998468169551
21
-113.19714905115477
31
1.2672786596272831e-22
0
ARC
5
146
100
AcDbEntity
8
0
100
AcDbCircle
10
-117.81290967065827
20
-172.18973742614483
30
0
40
48.000000000000611
210
0
220
-0
230
1
100
AcDbArc
50
89.999999999995509
51
118.95658018204769
0
LINE
5
147
100
AcDbEntity
8
0
100
AcDbLine
10
-127.99959138930527
20
-117.64455793283813
30
0
11
-127.99959140451571
21
-123.144557932845
31
0
0
ARC
5
148
100
AcDbEntity
8
0
100
AcDbCircle
10
-128.99959140451574
20
-123.14455793007944
30
0
40
1.000000000000032
210
0
220
0
230
1
100
AcDbArc
50
269.99999999999511
51
360
0
ARC
5
149
100
AcDbEntity
8
0
100
AcDbCircle
10
-142.02024356348198
20
-128.44039473620947
30
0
40
1.9999999999999218
210
-0
220
0
230
1
100
AcDbArc
50
270.00000000000409
51
298.95658018205125
0
ARC
5
150
100
AcDbEntity
8
0
100
AcDbCircle
10
-128.99959138930524
20
-117.64455793007259
30
0
40
0.99999999999997868
210
0
220
0
230
1
100
AcDbArc
50
0
51
90.000000000006523
0
ARC
5
151
100
AcDbEntity
8
0
100
AcDbCircle
10
-131.42593340241999
20
-117.64455792336247
30
0
40
0.99999999999997868
210
0
220
-0
230
1
100
AcDbArc
50
89.999999683085264
51
180
0
LINE
5
152
100
AcDbEntity
8
0
100
AcDbLine
10
-132.42593340241993
20
-117.64455792059691
30
0
11
-132.42593341763038
21
-123.14455792060379
31
0
0
ARC
5
153
100
AcDbEntity
8
0
100
AcDbCircle
10
-131.42593341763035
20
-123.14455792336931
30
0
40
1.000000000000032
210
0
220
0
230
1
100
AcDbArc
50
180
51
269.99999968309663
0
LINE
5
154
100
AcDbEntity
8
0
100
AcDbLine
10
-131.42593339688878
20
-116.64455792336248
30
0
11
-128.99959138930535
21
-116.64455793007262
31
0
0
LINE
5
155
100
AcDbEntity
8
0
100
AcDbLine
10
-131.42593342316135
20
-124.14455792336935
30
0
11
-128.99959140451583
21
-124.14455793007947
31
0
0
LINE
5
156
100
AcDbEntity
8
0
100
AcDbLine
10
-95.292649690485547
20
-124.18935924735494
30
4.7331654313260714e-29
11
-117.81290967065452
21
-124.18973742614423
31
0
0
LINE
5
157
100
AcDbEntity
8
0
100
AcDbLine
10
-142.02024356348184
20
-130.44039473620938
30
0
11
-153.02981004665162
21
-130.44001671118463
31
1.1209832280166915e-21
0
ENDSEC
0
SECTION
2
OBJECTS
0
DICTIONARY
5
C
100
AcDbDictionary
3
ACAD_GROUP
350
D
3
ACAD_MLINESTYLE
350
17
0
DICTIONARY
5
D
100
AcDbDictionary
0
DICTIONARY
5
1A
330
C
100
AcDbDictionary
0
DICTIONARY
5
17
100
AcDbDictionary
0
ENDSEC
0
EOF
