0
SECTION
2
HEADER
9
$INSUNITS
70
4
9
$ACADVER
1
AC1014
9
$HANDSEED
5
FFFF
0
ENDSEC
0
SECTION
2
TABLES
0
TABLE
2
VPORT
5
8
100
AcDbSymbolTable
0
ENDTAB
0
TABLE
2
LTYPE
5
5
100
AcDbSymbolTable
0
LTYPE
5
14
100
AcDbSymbolTableRecord
100
AcDbLinetypeTableRecord
2
BYBLOCK
70
0
0
LTYPE
5
15
100
AcDbSymbolTableRecord
100
AcDbLinetypeTableRecord
2
BYLAYER
70
0
0
ENDTAB
0
TABLE
2
LAYER
5
2
100
AcDbSymbolTable
70
2
0
LAYER
5
50
100
AcDbSymbolTableRecord
100
AcDbLayerTableRecord
2
0
70
0
6
CONTINUOUS
0
ENDTAB
0
TABLE
2
STYLE
5
3
100
AcDbSymbolTable
70
1
0
STYLE
5
11
100
AcDbSymbolTableRecord
100
AcDbTextStyleTableRecord
2
STANDARD
70
0
0
ENDTAB
0
TABLE
2
VIEW
5
6
100
AcDbSymbolTable
70
0
0
ENDTAB
0
TABLE
2
UCS
5
7
100
AcDbSymbolTable
70
0
0
ENDTAB
0
TABLE
2
APPID
5
9
100
AcDbSymbolTable
70
2
0
APPID
5
12
100
AcDbSymbolTableRecord
100
AcDbRegAppTableRecord
2
ACAD
70
0
0
ENDTAB
0
TABLE
2
DIMSTYLE
5
A
100
AcDbSymbolTable
70
1
0
ENDTAB
0
TABLE
2
BLOCK_RECORD
5
1
100
AcDbSymbolTable
70
1
0
BLOCK_RECORD
5
1F
100
AcDbSymbolTableRecord
100
AcDbBlockTableRecord
2
*MODEL_SPACE
0
BLOCK_RECORD
5
1B
100
AcDbSymbolTableRecord
100
AcDbBlockTableRecord
2
*PAPER_SPACE
0
ENDTAB
0
ENDSEC
0
SECTION
2
BLOCKS
0
BLOCK
5
20
100
AcDbEntity
100
AcDbBlockBegin
2
*MODEL_SPACE
0
ENDBLK
5
21
100
AcDbEntity
100
AcDbBlockEnd
0
BLOCK
5
1C
100
AcDbEntity
100
AcDbBlockBegin
2
*PAPER_SPACE
0
ENDBLK
5
1D
100
AcDbEntity
100
AcDbBlockEnd
0
ENDSEC
0
SECTION
2
ENTITIES
0
LINE
5
100
100
AcDbEntity
8
0
100
AcDbLine
10
-139.50466075679708
20
-133.13754552366709
30
0
11
-136.6416396585094
21
-136.21335024736368
31
0
0
LINE
5
101
100
AcDbEntity
8
0
100
AcDbLine
10
-142.00000216926986
20
-109.16159753678528
30
0
11
-152.99961519785344
21
-109.16159799385888
31
0
0
ARC
5
102
100
AcDbEntity
8
0
100
AcDbCircle
10
139.00000208729114
20
-114.57684611099508
30
0
40
0.99999999999992006
210
-0
220
0
230
-1
100
AcDbArc
50
-42.897306459060616
51
0
0
CIRCLE
5
103
100
AcDbEntity
8
0
100
AcDbCircle
10
-147.49921033088341
20
-126.81271494777036
30
0
40
1.5500000000000047
210
0
220
0
230
1
0
ARC
5
104
100
AcDbEntity
8
0
100
AcDbCircle
10
-132.24980644294595
20
-132.12534327492909
30
0
40
6.0000000000000098
210
0
220
0
230
1
100
AcDbArc
50
-137.05198656058758
51
42.897306459063451
0
LINE
5
105
100
AcDbEntity
8
0
100
AcDbLine
10
-140.00000208729102
20
-114.57684611066448
30
0
11
-140.00000208616254
21
-111.1615975374461
31
0
0
ARC
5
106
100
AcDbEntity
8
0
100
AcDbCircle
10
140.96860516198456
20
-134.50021451447881
30
0
40
1.9999999999999041
210
0
220
0
230
-1
100
AcDbArc
50
90.000000000003254
51
137.05198656057678
0
LINE
5
107
100
AcDbEntity
8
0
100
AcDbLine
10
-152.9996151147464
20
-132.50021451447856
30
0
11
-140.96860516198444
21
-132.5002145144789
31
0
0
ARC
5
108
100
AcDbEntity
8
0
100
AcDbCircle
10
-142.00000208616268
20
-111.16159753678542
30
0
40
2.000000000000135
210
-0
220
0
230
1
100
AcDbArc
50
0
51
90.000002380845373
0
LINE
5
109
100
AcDbEntity
8
0
100
AcDbLine
10
-127.85435704622117
20
-128.04122469182801
30
0
11
-139.73257698674524
21
-115.25753254151184
31
0
0
CIRCLE
5
110
100
AcDbEntity
8
0
100
AcDbCircle
10
-147.51079055905495
20
-114.81309733200621
30
0
40
1.550000000000006
210
0
220
0
230
1
0
ARC
5
111
100
AcDbEntity
8
0
100
AcDbCircle
10
-152.99961511474638
20
-130.50021451447859
30
0
40
2.0000000000000107
210
0
220
0
230
1
100
AcDbArc
50
180
51
269.9999999999992
0
ARC
5
112
100
AcDbEntity
8
0
100
AcDbCircle
10
-152.99961511474623
20
-111.16159799385881
30
0
40
1.9999999999999236
210
0
220
0
230
1
100
AcDbArc
50
90.000002380846198
51
180
0
LINE
5
113
100
AcDbEntity
8
0
100
AcDbLine
10
-154.42981008313589
20
-123.44064355944977
30
0
11
-154.42981008313592
21
-117.64064355944979
31
0
0
ARC
5
114
100
AcDbEntity
8
0
100
AcDbCircle
10
-155.02981008313589
20
-123.44064355944977
30
0
40
0.60000000000000497
210
0
220
0
230
1
100
AcDbArc
50
-90
51
0
0
ARC
5
115
100
AcDbEntity
8
0
100
AcDbCircle
10
-155.02981008313589
20
-117.64064355944979
30
0
40
0.59999999999998721
210
0
220
-0
230
1
100
AcDbArc
50
0
51
90
0
ARC
5
116
100
AcDbEntity
8
0
100
AcDbCircle
10
-153.02981008313591
20
-117.6406435594498
30
0
40
0.60000000000000497
210
0
220
-0
230
1
100
AcDbArc
50
0
51
180
0
LINE
5
117
100
AcDbEntity
8
0
100
AcDbLine
10
-153.62981008313591
20
-117.64064355944979
30
0
11
-153.62981008313591
21
-123.44064355944977
31
0
0
LINE
5
118
100
AcDbEntity
8
0
100
AcDbLine
10
-152.42981008313592
20
-123.44064355944977
30
0
11
-152.42981008313592
21
-117.64064355944979
31
0
0
ARC
5
119
100
AcDbEntity
8
0
100
AcDbCircle
10
-153.02981008313591
20
-123.44064355944978
30
0
40
0.59999999999998721
210
0
220
0
230
1
100
AcDbArc
50
180
51
360
0
ARC
5
120
100
AcDbEntity
8
0
100
AcDbCircle
10
-151.02981008313594
20
-123.44064355944978
30
0
40
0.59999999999998721
210
0
220
0
230
1
100
AcDbArc
50
180
51
360
0
LINE
5
121
100
AcDbEntity
8
0
100
AcDbLine
10
-151.62981008313594
20
-117.64064355944981
30
0
11
-151.62981008313591
21
-123.44064355944977
31
0
0
ARC
5
122
100
AcDbEntity
8
0
100
AcDbCircle
10
-151.02981008313594
20
-117.6406435594498
30
0
40
0.60000000000000497
210
0
220
-0
230
1
100
AcDbArc
50
0
51
180
0
LINE
5
123
100
AcDbEntity
8
0
100
AcDbLine
10
-150.42981008313592
20
-123.44064355944977
30
0
11
-150.42981008313592
21
-117.64064355944979
31
0
0
LINE
5
124
100
AcDbEntity
8
0
100
AcDbLine
10
-149.62981008313591
20
-117.64064355944979
30
0
11
-149.62981008313591
21
-123.44064355944977
31
0
0
LINE
5
125
100
AcDbEntity
8
0
100
AcDbLine
10
-148.42981008313592
20
-123.44064355944977
30
0
11
-148.42981008313592
21
-117.64064355944979
31
0
0
ARC
5
126
100
AcDbEntity
8
0
100
AcDbCircle
10
-149.02981008313591
20
-117.64064355944979
30
0
40
0.59999999999998721
210
0
220
-0
230
1
100
AcDbArc
50
0
51
180
0
ARC
5
127
100
AcDbEntity
8
0
100
AcDbCircle
10
-149.02981008313591
20
-123.44064355944977
30
0
40
0.59999999999998721
210
0
220
0
230
1
100
AcDbArc
50
-180
51
0
0
ARC
5
128
100
AcDbEntity
8
0
100
AcDbCircle
10
-147.02981008313591
20
-123.44064355944974
30
0
40
0.60000000000000497
210
0
220
0
230
1
100
AcDbArc
50
-180
51
0
0
LINE
5
129
100
AcDbEntity
8
0
100
AcDbLine
10
-146.42981008313592
20
-123.44064355944973
30
0
11
-146.42981008313592
21
-117.64064355944979
31
0
0
LINE
5
130
100
AcDbEntity
8
0
100
AcDbLine
10
-147.62981008313591
20
-117.64064355944979
30
0
11
-147.62981008313591
21
-123.44064355944977
31
0
0
ARC
5
131
100
AcDbEntity
8
0
100
AcDbCircle
10
-147.02981008313591
20
-117.64064355944976
30
0
40
0.59999999999998721
210
-0
220
0
230
1
100
AcDbArc
50
0
51
180
0
ARC
5
132
100
AcDbEntity
8
0
100
AcDbCircle
10
-145.02981008313591
20
-117.64064355944976
30
0
40
0.59999999999998721
210
-0
220
0
230
1
100
AcDbArc
50
0
51
180
0
LINE
5
133
100
AcDbEntity
8
0
100
AcDbLine
10
-144.42981008313592
20
-123.44064355944973
30
0
11
-144.42981008313592
21
-117.64064355944979
31
0
0
LINE
5
134
100
AcDbEntity
8
0
100
AcDbLine
10
-145.62981008313591
20
-117.64064355944979
30
0
11
-145.62981008313591
21
-123.44064355944977
31
0
0
ARC
5
135
100
AcDbEntity
8
0
100
AcDbCircle
10
-145.02981008313591
20
-123.44064355944974
30
0
40
0.60000000000000497
210
0
220
0
230
1
100
AcDbArc
50
-180
51
0
0
ARC
5
136
100
AcDbEntity
8
0
100
AcDbCircle
10
-143.02981008313591
20
-123.44064355944978
30
0
40
0.59999999999998721
210
0
220
0
230
1
100
AcDbArc
50
180
51
360
0
LINE
5
137
100
AcDbEntity
8
0
100
AcDbLine
10
-142.42981008313592
20
-123.44064355944977
30
0
11
-142.42981008313592
21
-117.64064355944979
31
0
0
LINE
5
138
100
AcDbEntity
8
0
100
AcDbLine
10
-143.62981008313591
20
-117.64064355944979
30
0
11
-143.62981008313591
21
-123.44064355944977
31
0
0
ARC
5
139
100
AcDbEntity
8
0
100
AcDbCircle
10
-143.02981008313591
20
-117.6406435594498
30
0
40
0.60000000000000497
210
0
220
-0
230
1
100
AcDbArc
50
0
51
180
0
ARC
5
140
100
AcDbEntity
8
0
100
AcDbCircle
10
-141.02981008313594
20
-117.6406435594498
30
0
40
0.60000000000000497
210
0
220
-0
230
1
100
AcDbArc
50
0
51
180
0
LINE
5
141
100
AcDbEntity
8
0
100
AcDbLine
10
-140.42981008313592
20
-123.44064355944977
30
0
11
-140.42981008313592
21
-117.64064355944979
31
0
0
LINE
5
142
100
AcDbEntity
8
0
100
AcDbLine
10
-141.62981008313594
20
-117.64064355944981
30
0
11
-141.62981008313591
21
-123.44064355944977
31
0
0
ARC
5
143
100
AcDbEntity
8
0
100
AcDbCircle
10
-141.02981008313594
20
-123.44064355944978
30
0
40
0.59999999999998721
210
0
220
0
230
1
100
AcDbArc
50
180
51
360
0
CIRCLE
5
144
100
AcDbEntity
8
0
100
AcDbCircle
10
-132.24980644294595
20
-132.12534327492909
30
0
40
1.2999999999999943
210
0
220
0
230
1
0
LINE
5
145
100
AcDbEntity
8
0
100
AcDbLine
10
-155.02981008313589
20
-117.04064355944979
30
0
11
-154.99961511474618
21
-111.16159799385883
31
0
0
LINE
5
146
100
AcDbEntity
8
0
100
AcDbLine
10
-154.99961511474638
20
-130.50021451447864
30
0
11
-155.02981008313589
21
-124.04064355944976
31
0
0
ENDSEC
0
SECTION
2
OBJECTS
0
DICTIONARY
5
C
100
AcDbDictionary
3
ACAD_GROUP
350
D
3
ACAD_MLINESTYLE
350
17
0
DICTIONARY
5
D
100
AcDbDictionary
0
DICTIONARY
5
1A
330
C
100
AcDbDictionary
0
DICTIONARY
5
17
100
AcDbDictionary
0
ENDSEC
0
EOF
