0
SECTION
2
HEADER
9
$INSUNITS
70
4
9
$ACADVER
1
AC1014
9
$HANDSEED
5
FFFF
0
ENDSEC
0
SECTION
2
TABLES
0
TABLE
2
VPORT
5
8
100
AcDbSymbolTable
0
ENDTAB
0
TABLE
2
LTYPE
5
5
100
AcDbSymbolTable
0
LTYPE
5
14
100
AcDbSymbolTableRecord
100
AcDbLinetypeTableRecord
2
BYBLOCK
70
0
0
LTYPE
5
15
100
AcDbSymbolTableRecord
100
AcDbLinetypeTableRecord
2
BYLAYER
70
0
0
ENDTAB
0
TABLE
2
LAYER
5
2
100
AcDbSymbolTable
70
2
0
LAYER
5
50
100
AcDbSymbolTableRecord
100
AcDbLayerTableRecord
2
0
70
0
6
CONTINUOUS
0
ENDTAB
0
TABLE
2
STYLE
5
3
100
AcDbSymbolTable
70
1
0
STYLE
5
11
100
AcDbSymbolTableRecord
100
AcDbTextStyleTableRecord
2
STANDARD
70
0
0
ENDTAB
0
TABLE
2
VIEW
5
6
100
AcDbSymbolTable
70
0
0
ENDTAB
0
TABLE
2
UCS
5
7
100
AcDbSymbolTable
70
0
0
ENDTAB
0
TABLE
2
APPID
5
9
100
AcDbSymbolTable
70
2
0
APPID
5
12
100
AcDbSymbolTableRecord
100
AcDbRegAppTableRecord
2
ACAD
70
0
0
ENDTAB
0
TABLE
2
DIMSTYLE
5
A
100
AcDbSymbolTable
70
1
0
ENDTAB
0
TABLE
2
BLOCK_RECORD
5
1
100
AcDbSymbolTable
70
1
0
BLOCK_RECORD
5
1F
100
AcDbSymbolTableRecord
100
AcDbBlockTableRecord
2
*MODEL_SPACE
0
BLOCK_RECORD
5
1B
100
AcDbSymbolTableRecord
100
AcDbBlockTableRecord
2
*PAPER_SPACE
0
ENDTAB
0
ENDSEC
0
SECTION
2
BLOCKS
0
BLOCK
5
20
100
AcDbEntity
100
AcDbBlockBegin
2
*MODEL_SPACE
0
ENDBLK
5
21
100
AcDbEntity
100
AcDbBlockEnd
0
BLOCK
5
1C
100
AcDbEntity
100
AcDbBlockBegin
2
*PAPER_SPACE
0
ENDBLK
5
1D
100
AcDbEntity
100
AcDbBlockEnd
0
ENDSEC
0
SECTION
2
ENTITIES
0
ARC
5
100
100
AcDbEntity
8
0
100
AcDbCircle
10
-129.18924805659424
20
100.16082015843821
30
1.9104202516717452e-20
40
17.249999999998959
210
0
220
0
230
1
100
AcDbArc
50
101.15173651253055
51
128.98446500757285
0
LWPOLYLINE
5
101
100
AcDbEntity
8
0
100
AcDbPolyline
90
4
70
1
43
0.0
10
-123.39744970310525
20
146.59775008927494
10
-118.39744970310525
20
146.59775008927494
42
0.99999999999999989
10
-118.39744970310562
20
149.6977500892749
10
-123.39744970310525
20
149.6977500892749
42
0.99999999999999989
0
ARC
5
102
100
AcDbEntity
8
0
100
AcDbCircle
10
-84.347556560803099
20
122.40285093762395
30
2.4124231043976758e-21
40
3.4999999999995701
210
0
220
0
230
1
100
AcDbArc
50
90.000000152586836
51
180.00410065678128
0
LINE
5
103
100
AcDbEntity
8
0
100
AcDbLine
10
-95.292649690485547
20
117.41064075264505
30
4.7331654313260714e-29
11
-129.2679410626732
21
117.4106406621641
31
0
0
LWPOLYLINE
5
104
100
AcDbEntity
8
0
100
AcDbPolyline
90
4
70
1
43
0.0
10
-118.39744970310562
20
120.59775002003292
10
-123.39744970310525
20
120.59775002003292
42
-0.99999999999999989
10
-123.39744970310525
20
123.69775002003294
10
-118.39744970310562
20
123.69775002003294
42
-0.99999999999999989
0
ARC
5
105
100
AcDbEntity
8
0
100
AcDbCircle
10
-129.50000189976231
20
120.11082015760664
30
5.8806428011618829e-23
40
1.4999999999969837
210
0
220
0
230
1
100
AcDbArc
50
-89.999999847418053
51
0
0
LINE
5
106
100
AcDbEntity
8
0
100
AcDbLine
10
-84.347556570124098
20
125.90285093762353
30
2.4124231043976758e-21
11
-78.593998461511617
21
125.90285095294652
31
1.2929175818211295e-22
0
ARC
5
107
100
AcDbEntity
8
0
100
AcDbCircle
10
-78.593998464174859
20
126.90285095294666
30
1.2929175818211295e-22
40
1.0000000000001208
210
0
220
0
230
1
100
AcDbArc
50
-89.999999847407466
51
0
0
LINE
5
108
100
AcDbEntity
8
0
100
AcDbLine
10
-70.029810152379994
20
152.85944170552699
30
4.4408920985006254e-15
11
-134.99894810823034
21
152.85944170552352
31
-3.791462725718488e-28
0
LINE
5
109
100
AcDbEntity
8
0
100
AcDbLine
10
-140.04138960666415
20
113.56953090098204
30
1.9104202516717452e-20
11
-140.04138960557344
21
113.15998332340635
31
2.6475781255463807e-23
0
CIRCLE
5
110
100
AcDbEntity
8
0
100
AcDbCircle
10
-132.18352072886751
20
148.51441565613044
30
0
40
1.5499999999999992
210
0
220
0
230
1
0
LWPOLYLINE
5
111
100
AcDbEntity
8
0
100
AcDbPolyline
90
4
70
1
43
0.0
10
-92.39744977235506
20
146.597750089285
42
0.99999999999999989
10
-92.397449772357049
20
149.69775008928499
10
-97.397449772356708
20
149.6977500892817
42
0.99999999999999989
10
-97.39744977235506
20
146.59775008928176
0
CIRCLE
5
112
100
AcDbEntity
8
0
100
AcDbCircle
10
-132.18352072886751
20
131.9284228339279
30
-5.2854678517936958e-23
40
1.5500000000000005
210
0
220
0
230
1
0
LINE
5
113
100
AcDbEntity
8
0
100
AcDbLine
10
-77.59399849080684
20
136.90285095827295
30
1.1219914338166271e-22
11
-77.593998486812055
21
135.40285095827295
31
1.1476303560104747e-22
0
ARC
5
114
100
AcDbEntity
8
0
100
AcDbCircle
10
-129.1892480565937
20
100.16082015843593
30
1.3071497181143835e-34
40
17.250000000001375
210
-3.456871773640206e-38
220
7.5776006751416744e-36
230
1
100
AcDbArc
50
90.261379290691778
51
101.15173651253083
0
ARC
5
115
100
AcDbEntity
8
0
100
AcDbCircle
10
-76.593998493470082
20
136.90285096093618
30
1.1390840485214793e-22
40
0.99999999733677569
210
0
220
-0
230
1
100
AcDbArc
50
89.999999999988603
51
180
0
LINE
5
116
100
AcDbEntity
8
0
100
AcDbLine
10
-136.99894806466378
20
134.50035648484152
30
0
11
-136.99894810823022
21
150.85944170019727
31
-1.0575471819747779e-21
0
LWPOLYLINE
5
117
100
AcDbEntity
8
0
100
AcDbPolyline
90
4
70
1
43
0.0
10
-97.397449772337808
20
120.59775002003974
10
-92.397449772338177
20
120.59775002004301
42
0.99999999999999989
10
-92.397449772340181
20
123.69775002004296
10
-97.397449772340181
20
123.69775002003971
42
0.99999999999999989
0
ARC
5
118
100
AcDbEntity
8
0
100
AcDbCircle
10
-138.99894806466386
20
134.50035647951537
30
-2.6461316055318055e-28
40
2.0000000000000817
210
0
220
0
230
1
100
AcDbArc
50
-89.999999847407466
51
0
0
ARC
5
119
100
AcDbEntity
8
0
100
AcDbCircle
10
-70.029810123200122
20
139.90285097575486
30
2.5860095711709239e-22
40
2.0000000000000995
210
0
220
0
230
1
100
AcDbArc
50
-89.999999847409498
51
0
0
CIRCLE
5
120
100
AcDbEntity
8
0
100
AcDbCircle
10
-71.699998397380114
20
145.39999675005674
30
0
40
1.5500000000000047
210
0
220
0
230
1
0
ARC
5
121
100
AcDbEntity
8
0
100
AcDbCircle
10
-153.02981009815912
20
130.50035644214807
30
1.2929170564839801e-22
40
1.9999999999999574
210
0
220
0
230
1
100
AcDbArc
50
90.0000001525909
51
180
0
LINE
5
122
100
AcDbEntity
8
0
100
AcDbLine
10
-130.92593341681706
20
126.11082015381881
30
-9.6968852440782059e-23
11
-129.50000190330005
21
126.11082015761656
31
3.2180375942011854e-15
0
LINE
5
123
100
AcDbEntity
8
0
100
AcDbLine
10
-95.292649690485547
20
117.41064075264505
30
4.7331654313260714e-29
11
-91.347449763018162
21
117.41064076315169
31
-4.8759196158313118e-30
0
LINE
5
124
100
AcDbEntity
8
0
100
AcDbLine
10
-77.593998464174703
20
126.90285095560981
30
1.29291758182113e-22
11
-77.593998468169545
21
128.40285095560981
31
1.2672786596272831e-22
0
ARC
5
125
100
AcDbEntity
8
0
100
AcDbCircle
10
-91.347449772339147
20
120.91064076315165
30
4.6316159548088174e-29
40
3.4999999999999609
210
3.8951900193174153e-38
220
-1.4626308332548588e-29
230
1
100
AcDbArc
50
-89.99999984741342
51
0
0
LINE
5
126
100
AcDbEntity
8
0
100
AcDbLine
10
-132.42593340083766
20
120.11082014981751
30
0
11
-132.42593341282225
21
124.61082014982429
31
-2.9090615342556274e-22
0
LWPOLYLINE
5
127
100
AcDbEntity
8
0
100
AcDbPolyline
90
4
70
1
43
0.0
10
-110.61298311613484
20
123.14295005407828
42
-0.99999999999999989
10
-110.61298311613484
20
147.14295005407826
10
-105.61298311613484
20
147.14295005407826
42
-0.99999999999999989
10
-105.61298311613484
20
123.14295005407828
0
ARC
5
128
100
AcDbEntity
8
0
100
AcDbCircle
10
-130.92593341282202
20
124.61082015381884
30
-1.8367099231598239e-36
40
1.4999999999999858
210
-1.7217472811565121e-31
220
6.46459016271882e-23
230
1
100
AcDbArc
50
90.000000152599313
51
180
0
LINE
5
129
100
AcDbEntity
8
0
100
AcDbLine
10
-128.00000189976532
20
120.11082016563378
30
2.9090615342556274e-22
11
-128.00000189930486
21
124.61082016153355
31
9.4663308861620287e-30
0
LINE
5
130
100
AcDbEntity
8
0
100
AcDbLine
10
-130.92593339684294
20
118.6108201538123
30
-1.5777218104420233e-29
11
-129.50000189576772
21
118.61082015760965
31
5.8806428011618829e-23
0
ARC
5
131
100
AcDbEntity
8
0
100
AcDbCircle
10
-130.92593340083755
20
120.11082015381206
30
4.4408920985006277e-15
40
1.5000000000001101
210
0
220
0
230
1
100
AcDbArc
50
180
51
270.00000015258303
0
LINE
5
132
100
AcDbEntity
8
0
100
AcDbLine
10
-138.99894805933738
20
132.50035647951529
30
-2.6461316055318055e-28
11
-153.02981010348554
21
132.50035644214805
31
1.2929170564839801e-22
0
LINE
5
133
100
AcDbEntity
8
0
100
AcDbLine
10
-70.029810117873708
20
137.90285097575477
30
2.5860095711709239e-22
11
-76.593998493469883
21
137.90285095827295
31
1.1390840485214793e-22
0
ARC
5
134
100
AcDbEntity
8
0
100
AcDbCircle
10
-153.02981005197802
20
113.15998328881534
30
1.1209832280166915e-21
40
1.9999999999999929
210
0
220
0
230
1
100
AcDbArc
50
180
51
270.00000015259093
0
LINE
5
135
100
AcDbEntity
8
0
100
AcDbLine
10
-77.593998468169545
20
128.40285095560981
30
1.2672786596272831e-22
11
-80.133998468169551
21
128.40285094884524
31
1.2672786596272831e-22
0
ARC
5
136
100
AcDbEntity
8
0
100
AcDbCircle
10
-70.029810281577312
20
150.85944157632954
30
4.4408928133710604e-15
40
2.0000001291974501
210
0
220
-0
230
1
100
AcDbArc
50
3.8181918208328457e-06
51
89.99999629876973
0
ARC
5
137
100
AcDbEntity
8
0
100
AcDbCircle
10
-134.99894810823022
20
150.85944170552358
30
1.2929134422737563e-22
40
1.9999999999999574
210
-4.0191941491211839e-36
220
6.464586168682605e-23
230
1
100
AcDbArc
50
90.000000000003254
51
180
0
LINE
5
138
100
AcDbEntity
8
0
100
AcDbLine
10
-142.04138960024702
20
111.15998331807987
30
0
11
-153.02981004665159
21
111.15998328881534
31
1.1209832280166915e-21
0
ARC
5
139
100
AcDbEntity
8
0
100
AcDbCircle
10
-142.0413896055735
20
113.15998331807997
30
-1.2929282313029814e-22
40
2.0000000000000817
210
-1.7216938754552524e-31
220
6.4646411565145862e-23
230
1
100
AcDbArc
50
-89.999999847407466
51
0
0
LINE
5
140
100
AcDbEntity
8
0
100
AcDbLine
10
-87.847449772339189
20
120.91064076315165
30
4.6316159548088174e-29
11
-87.847556551838707
21
122.40260044275603
31
2.4124231043976758e-21
0
LINE
5
141
100
AcDbEntity
8
0
100
AcDbLine
10
-77.593998486812055
20
135.40285095827295
30
1.1476303560104747e-22
11
-80.133998486812033
21
135.40285095150836
31
1.1476303560104747e-22
0
LINE
5
142
100
AcDbEntity
8
0
100
AcDbLine
10
-80.133998486812033
20
135.40285095150836
30
1.1476303560104747e-22
11
-80.133998468169551
21
128.40285094884524
31
1.2672786596272831e-22
0
CIRCLE
5
143
100
AcDbEntity
8
0
100
AcDbCircle
10
-83.699998129159226
20
145.39999675005674
30
0
40
1.5499999999999894
210
0
220
0
230
1
0
LINE
5
144
100
AcDbEntity
8
0
100
AcDbLine
10
-68.029810152379866
20
150.85944171085342
30
0
11
-68.029810123200022
21
139.90285098108126
31
2.5860097407044154e-22
0
ARC
5
145
100
AcDbEntity
8
0
100
AcDbCircle
10
-129.50000189523445
20
124.61082016168703
30
3.2180376735369661e-15
40
1.4999999959295529
210
2.1453584548463245e-15
220
-2.1950911725539412e-25
230
1
100
AcDbArc
50
0
51
90.000000308083145
0
ARC
5
146
100
AcDbEntity
8
0
100
AcDbCircle
10
-155.02981008313589
20
118.15935644055024
30
0
40
0.60000000000000497
210
0
220
0
230
1
100
AcDbArc
50
-90
51
0
0
ARC
5
147
100
AcDbEntity
8
0
100
AcDbCircle
10
-155.02981008313589
20
123.95935644055022
30
0
40
0.59999999999998721
210
0
220
0
230
1
100
AcDbArc
50
0
51
90
0
LINE
5
148
100
AcDbEntity
8
0
100
AcDbLine
10
-154.42981008313592
20
118.15935644055024
30
0
11
-154.42981008313592
21
123.95935644055022
31
0
0
LWPOLYLINE
5
149
100
AcDbEntity
8
0
100
AcDbPolyline
90
4
70
1
43
0.0
10
-152.42981008313592
20
118.15935644055024
10
-152.42981008313592
20
123.95935644055022
42
0.99999999999999989
10
-153.62981008313591
20
123.95935644055022
10
-153.62981008313591
20
118.15935644055024
42
0.99999999999999989
0
LWPOLYLINE
5
150
100
AcDbEntity
8
0
100
AcDbPolyline
90
4
70
1
43
0.0
10
-150.42981008313592
20
118.15935644055024
10
-150.42981008313592
20
123.95935644055022
42
0.99999999999999989
10
-151.62981008313591
20
123.95935644055022
10
-151.62981008313591
20
118.15935644055024
42
0.99999999999999989
0
LWPOLYLINE
5
151
100
AcDbEntity
8
0
100
AcDbPolyline
90
4
70
1
43
0.0
10
-148.42981008313592
20
118.15935644055024
10
-148.42981008313592
20
123.95935644055022
42
0.99999999999999989
10
-149.62981008313591
20
123.95935644055022
10
-149.62981008313591
20
118.15935644055024
42
0.99999999999999989
0
LWPOLYLINE
5
152
100
AcDbEntity
8
0
100
AcDbPolyline
90
4
70
1
43
0.0
10
-146.42981008313592
20
118.15935644055024
10
-146.42981008313592
20
123.95935644055022
42
0.99999999999999989
10
-147.62981008313591
20
123.95935644055022
10
-147.62981008313591
20
118.15935644055024
42
0.99999999999999989
0
LWPOLYLINE
5
153
100
AcDbEntity
8
0
100
AcDbPolyline
90
4
70
1
43
0.0
10
-144.42981008313592
20
118.15935644055024
10
-144.42981008313592
20
123.95935644055022
42
0.99999999999999989
10
-145.62981008313591
20
123.95935644055022
10
-145.62981008313591
20
118.15935644055024
42
0.99999999999999989
0
LWPOLYLINE
5
154
100
AcDbEntity
8
0
100
AcDbPolyline
90
4
70
1
43
0.0
10
-142.42981008313592
20
118.15935644055024
10
-142.42981008313592
20
123.95935644055022
42
0.99999999999999989
10
-143.62981008313591
20
123.95935644055022
10
-143.62981008313591
20
118.15935644055024
42
0.99999999999999989
0
LWPOLYLINE
5
155
100
AcDbEntity
8
0
100
AcDbPolyline
90
4
70
1
43
0.0
10
-140.42981008313592
20
118.15935644055024
10
-140.42981008313592
20
123.95935644055022
42
0.99999999999999989
10
-141.62981008313591
20
123.95935644055022
10
-141.62981008313591
20
118.15935644055024
42
0.99999999999999989
0
LWPOLYLINE
5
156
100
AcDbEntity
8
0
100
AcDbPolyline
90
4
70
1
43
0.0
10
-138.42981008313592
20
118.15935644055024
10
-138.42981008313592
20
123.95935644055022
42
0.99999999999999989
10
-139.62981008313591
20
123.95935644055022
10
-139.62981008313591
20
118.15935644055024
42
0.99999999999999989
0
CIRCLE
5
157
100
AcDbEntity
8
0
100
AcDbCircle
10
-147.54139021676127
20
126.83048388835161
30
0
40
1.5
210
0
220
0
230
1
0
CIRCLE
5
158
100
AcDbEntity
8
0
100
AcDbCircle
10
-147.52980946658849
20
114.83086627307034
30
0
40
1.4999999999999927
210
0
220
0
230
1
0
LINE
5
159
100
AcDbEntity
8
0
100
AcDbLine
10
-155.02981009815909
20
130.50035644214807
30
1.2929170564839801e-22
11
-155.02981008313589
21
124.5593564405502
31
0
0
LINE
5
160
100
AcDbEntity
8
0
100
AcDbLine
10
-155.02981005197799
20
113.15998328881534
30
1.1209832280166915e-21
11
-155.02981008313589
21
117.55935644055023
31
0
0
ENDSEC
0
SECTION
2
OBJECTS
0
DICTIONARY
5
C
100
AcDbDictionary
3
ACAD_GROUP
350
D
3
ACAD_MLINESTYLE
350
17
0
DICTIONARY
5
D
100
AcDbDictionary
0
DICTIONARY
5
1A
330
C
100
AcDbDictionary
0
DICTIONARY
5
17
100
AcDbDictionary
0
ENDSEC
0
EOF
