0
SECTION
2
HEADER
9
$INSUNITS
70
4
9
$ACADVER
1
AC1014
9
$HANDSEED
5
FFFF
0
ENDSEC
0
SECTION
2
TABLES
0
TABLE
2
VPORT
5
8
100
AcDbSymbolTable
0
ENDTAB
0
TABLE
2
LTYPE
5
5
100
AcDbSymbolTable
0
LTYPE
5
14
100
AcDbSymbolTableRecord
100
AcDbLinetypeTableRecord
2
BYBLOCK
70
0
0
LTYPE
5
15
100
AcDbSymbolTableRecord
100
AcDbLinetypeTableRecord
2
BYLAYER
70
0
0
ENDTAB
0
TABLE
2
LAYER
5
2
100
AcDbSymbolTable
70
2
0
LAYER
5
50
100
AcDbSymbolTableRecord
100
AcDbLayerTableRecord
2
0
70
0
6
CONTINUOUS
0
ENDTAB
0
TABLE
2
STYLE
5
3
100
AcDbSymbolTable
70
1
0
STYLE
5
11
100
AcDbSymbolTableRecord
100
AcDbTextStyleTableRecord
2
STANDARD
70
0
0
ENDTAB
0
TABLE
2
VIEW
5
6
100
AcDbSymbolTable
70
0
0
ENDTAB
0
TABLE
2
UCS
5
7
100
AcDbSymbolTable
70
0
0
ENDTAB
0
TABLE
2
APPID
5
9
100
AcDbSymbolTable
70
2
0
APPID
5
12
100
AcDbSymbolTableRecord
100
AcDbRegAppTableRecord
2
ACAD
70
0
0
ENDTAB
0
TABLE
2
DIMSTYLE
5
A
100
AcDbSymbolTable
70
1
0
ENDTAB
0
TABLE
2
BLOCK_RECORD
5
1
100
AcDbSymbolTable
70
1
0
BLOCK_RECORD
5
1F
100
AcDbSymbolTableRecord
100
AcDbBlockTableRecord
2
*MODEL_SPACE
0
BLOCK_RECORD
5
1B
100
AcDbSymbolTableRecord
100
AcDbBlockTableRecord
2
*PAPER_SPACE
0
ENDTAB
0
ENDSEC
0
SECTION
2
BLOCKS
0
BLOCK
5
20
100
AcDbEntity
100
AcDbBlockBegin
2
*MODEL_SPACE
0
ENDBLK
5
21
100
AcDbEntity
100
AcDbBlockEnd
0
BLOCK
5
1C
100
AcDbEntity
100
AcDbBlockBegin
2
*PAPER_SPACE
0
ENDBLK
5
1D
100
AcDbEntity
100
AcDbBlockEnd
0
ENDSEC
0
SECTION
2
ENTITIES
0
LINE
5
100
100
AcDbEntity
8
0
100
AcDbLine
10
-136.99894806466378
20
134.50035648484152
30
0
11
-136.99894810823022
21
150.85944170019729
31
-1.0575471819747781e-21
0
LINE
5
101
100
AcDbEntity
8
0
100
AcDbLine
10
-155.02981009815909
20
130.50035643682165
30
0
11
-155.02981005197796
21
113.15998328348896
31
1.1209832107870723e-21
0
LINE
5
102
100
AcDbEntity
8
0
100
AcDbLine
10
-142.04138960024699
20
111.15998331807988
30
0
11
-153.02981004665153
21
111.15998328881534
31
-9.4663308626521417e-29
0
LINE
5
103
100
AcDbEntity
8
0
100
AcDbLine
10
-140.04138960666413
20
113.56953090098202
30
0
11
-140.04138960557344
21
113.15998332340634
31
2.6475781255463807e-23
0
ARC
5
104
100
AcDbEntity
8
0
100
AcDbCircle
10
-129.18924805659384
20
100.16082015843719
30
0
40
17.250000000000007
210
-1.6669824253097255e-29
220
6.4645836763402975e-23
230
1
100
AcDbArc
50
101.15173651253122
51
128.86134410932624
0
ARC
5
105
100
AcDbEntity
8
0
100
AcDbCircle
10
-129.1892480565937
20
100.16082015843591
30
1.3071497181143837e-34
40
17.250000000001375
210
2.9491375921498984e-25
220
1.3453850358923183e-27
230
1
100
AcDbArc
50
90.261379290691778
51
101.15173651253085
0
LINE
5
106
100
AcDbEntity
8
0
100
AcDbLine
10
-132.42593340083766
20
120.1108201498175
30
0
11
-132.42593341282222
21
124.61082014982429
31
-2.9090615342556274e-22
0
ARC
5
107
100
AcDbEntity
8
0
100
AcDbCircle
10
-130.92593341282202
20
124.61082015381882
30
-1.8367099231598242e-36
40
1.4999999999999858
210
-1.2793927052199593e-29
220
6.4645901627187413e-23
230
1
100
AcDbArc
50
90.000000152598233
51
180
0
ARC
5
108
100
AcDbEntity
8
0
100
AcDbCircle
10
-130.92593340083755
20
120.11082015381203
30
4.440892098500627e-15
40
1.5000000000001101
210
-2.9605947323335344e-15
220
5.6761679270095643e-23
230
1
100
AcDbArc
50
180
51
270.00000015258303
0
ARC
5
109
100
AcDbEntity
8
0
100
AcDbCircle
10
-138.99894806466384
20
134.50035647951535
30
-2.6461316055318059e-28
40
2.0000000000000817
210
-3.5236515597633073e-37
220
1.3230658027658489e-28
230
1
100
AcDbArc
50
-89.999999847407466
51
0
0
ARC
5
110
100
AcDbEntity
8
0
100
AcDbCircle
10
-134.99894810823025
20
150.85944170552355
30
1.2929134422737565e-22
40
1.9999999999999574
210
-2.8708529527102934e-36
220
6.4645861440306453e-23
230
1
100
AcDbArc
50
90.000000000002444
51
180
0
ARC
5
111
100
AcDbEntity
8
0
100
AcDbCircle
10
-70.029810281577312
20
150.85944157632954
30
4.4408928133710596e-15
40
2.0000001291974501
210
2.2204462632475269e-15
220
1.4935152950041717e-22
230
1
100
AcDbArc
50
3.8181918208328457e-06
51
89.99999629876973
0
ARC
5
112
100
AcDbEntity
8
0
100
AcDbCircle
10
-70.029810123200122
20
139.90285097575489
30
2.5860095711709239e-22
40
2.0000000000000995
210
3.4435514392411605e-31
220
-1.2930047855853977e-22
230
1
100
AcDbArc
50
-89.9999998474091
51
0
0
ARC
5
113
100
AcDbEntity
8
0
100
AcDbCircle
10
-142.0413896055735
20
113.15998331807997
30
-1.2929282313029814e-22
40
2.0000000000000817
210
-1.7216996172100489e-31
220
6.4646411565146426e-23
230
1
100
AcDbArc
50
-89.999999847406656
51
0
0
ARC
5
114
100
AcDbEntity
8
0
100
AcDbCircle
10
-153.02981005197796
20
113.15998328881534
30
1.1209832280166914e-21
40
1.9999999999999929
210
-8.6148094787441941e-30
220
-2.2942909859864155e-38
230
1
100
AcDbArc
50
180
51
270.00000015259093
0
ARC
5
115
100
AcDbEntity
8
0
100
AcDbCircle
10
-153.02981009815912
20
130.50035644214807
30
1.2929170564839801e-22
40
1.9999999999999574
210
-1.7216502862759682e-31
220
6.4645852824200381e-23
230
1
100
AcDbArc
50
90.0000001525909
51
180
0
LINE
5
116
100
AcDbEntity
8
0
100
AcDbLine
10
-70.029810152379994
20
152.85944170552699
30
4.4408920985006262e-15
11
-134.99894810823034
21
152.85944170552352
31
-3.7865323450608567e-28
0
LINE
5
117
100
AcDbEntity
8
0
100
AcDbLine
10
-95.292649690485575
20
117.41064075264505
30
4.7331654313260708e-29
11
-129.2679410626732
21
117.4106406621641
31
0
0
LINE
5
118
100
AcDbEntity
8
0
100
AcDbLine
10
-68.029810152379866
20
150.85944171085342
30
0
11
-68.029810123200022
21
139.90285098108126
31
2.5860097407044154e-22
0
LINE
5
119
100
AcDbEntity
8
0
100
AcDbLine
10
-138.99894805933735
20
132.50035647951526
30
0
11
-153.02981010348554
21
132.50035644214802
31
0
0
LINE
5
120
100
AcDbEntity
8
0
100
AcDbLine
10
-128.00000189976532
20
120.11082016563375
30
2.9090615342556274e-22
11
-128.00000189930489
21
124.61082016153354
31
9.4663308626521431e-30
0
LINE
5
121
100
AcDbEntity
8
0
100
AcDbLine
10
-130.92593341681703
20
126.11082015381881
30
-9.6968852440782095e-23
11
-129.50000190330005
21
126.11082015761656
31
3.218037594201185e-15
0
ARC
5
122
100
AcDbEntity
8
0
100
AcDbCircle
10
-129.50000189523445
20
124.61082016168702
30
3.2180376735369665e-15
40
1.4999999959295529
210
2.1453584548463501e-15
220
-2.1950911725539936e-25
230
1
100
AcDbArc
50
0
51
90.000000308083145
0
LINE
5
123
100
AcDbEntity
8
0
100
AcDbLine
10
-130.92593339684294
20
118.6108201538123
30
-1.5777218104420236e-29
11
-129.50000189576772
21
118.61082015760965
31
2.2063885787590393e-22
0
ARC
5
124
100
AcDbEntity
8
0
100
AcDbCircle
10
-129.50000189976231
20
120.11082015760664
30
5.8806428011618829e-23
40
1.4999999999969837
210
-2.8731371453485238e-31
220
1.0788828657640703e-22
230
1
100
AcDbArc
50
-89.999999847418053
51
0
0
LWPOLYLINE
5
125
100
AcDbEntity
8
0
100
AcDbPolyline
90
4
70
1
43
0.0
10
-123.39744970310525
20
123.69775002003291
10
-118.39744970310562
20
123.69775002003291
42
-0.99999999999999989
10
-118.39744970310562
20
120.59775002003292
10
-123.39744970310525
20
120.59775002003292
42
-0.99999999999999989
0
LWPOLYLINE
5
126
100
AcDbEntity
8
0
100
AcDbPolyline
90
4
70
1
43
0.0
10
-118.39744970310525
20
146.59775008927494
42
0.99999999999999989
10
-118.39744970310562
20
149.6977500892749
10
-123.39744970310525
20
149.6977500892749
42
0.99999999999999989
10
-123.39744970310525
20
146.59775008927494
0
LWPOLYLINE
5
127
100
AcDbEntity
8
0
100
AcDbPolyline
90
4
70
1
43
0.0
10
-92.39744977235506
20
146.597750089285
42
0.99999999999999989
10
-92.397449772357078
20
149.69775008928499
10
-97.397449772356708
20
149.69775008928173
42
0.99999999999999989
10
-97.39744977235506
20
146.59775008928176
0
LWPOLYLINE
5
128
100
AcDbEntity
8
0
100
AcDbPolyline
90
4
70
1
43
0.0
10
-97.397449772340181
20
123.69775002003973
42
0.99999999999999989
10
-97.397449772337808
20
120.59775002003974
10
-92.397449772338177
20
120.59775002004299
42
0.99999999999999989
10
-92.397449772340181
20
123.69775002004297
0
LWPOLYLINE
5
129
100
AcDbEntity
8
0
100
AcDbPolyline
90
4
70
1
43
0.0
10
-110.61298311613483
20
147.14295005407826
10
-105.61298311613483
20
147.14295005407826
42
-0.99999999999999989
10
-105.61298311613483
20
123.14295005407826
10
-110.61298311613483
20
123.14295005407826
42
-0.99999999999999989
0
CIRCLE
5
130
100
AcDbEntity
8
0
100
AcDbCircle
10
-132.18352072886751
20
148.51441565613044
30
0
40
1.5499999999999992
210
0
220
0
230
1
0
CIRCLE
5
131
100
AcDbEntity
8
0
100
AcDbCircle
10
-132.18352072886751
20
131.9284228339279
30
-5.2854678517936946e-23
40
1.600000000000001
210
0
220
0
230
1
0
LINE
5
132
100
AcDbEntity
8
0
100
AcDbLine
10
-95.292649690485575
20
117.41064075264505
30
4.7331654313260708e-29
11
-91.347449763018176
21
117.41064076315168
31
-4.875919615831309e-30
0
ARC
5
133
100
AcDbEntity
8
0
100
AcDbCircle
10
-91.347449772339161
20
120.91064076315163
30
4.6316159548088169e-29
40
3.4999999999999609
210
3.8951900193174142e-38
220
-1.4626308332548585e-29
230
1
100
AcDbArc
50
270.00000015258655
51
360
0
LINE
5
134
100
AcDbEntity
8
0
100
AcDbLine
10
-87.847449772339189
20
120.91064076315148
30
8.7581154020301067e-46
11
-87.847556551838707
21
122.40260044275304
31
-9.7334327034948257e-22
0
ARC
5
135
100
AcDbEntity
8
0
100
AcDbCircle
10
-84.347556560803099
20
122.40285093762397
30
2.4124231043976762e-21
40
3.4999999999995701
210
-1.7372344461383236e-30
220
6.5232324177595545e-22
230
1
100
AcDbArc
50
90.000000152587063
51
180.00410065678128
0
LINE
5
136
100
AcDbEntity
8
0
100
AcDbLine
10
-84.347556570124112
20
125.90285093762354
30
1.2929175818211258e-22
11
-78.593998461511617
21
125.90285095294652
31
1.2929175818211295e-22
0
ARC
5
137
100
AcDbEntity
8
0
100
AcDbCircle
10
-78.593998464174845
20
126.90285095294664
30
1.2929175818211295e-22
40
1.0000000000001208
210
0
220
0
230
1
100
AcDbArc
50
-89.99999984740829
51
0
0
LINE
5
138
100
AcDbEntity
8
0
100
AcDbLine
10
-70.029810117873694
20
137.9028509757548
30
0
11
-76.593998493469883
21
137.90285095827295
31
1.1219914338166271e-22
0
ARC
5
139
100
AcDbEntity
8
0
100
AcDbCircle
10
-76.593998493470082
20
136.90285096093615
30
1.1390840485214793e-22
40
0.99999999733677569
210
3.4916970675310603e-37
220
1.7092614750373683e-24
230
1
100
AcDbArc
50
89.999999999988603
51
180
0
CIRCLE
5
140
100
AcDbEntity
8
0
100
AcDbCircle
10
-147.54139021676122
20
126.83048388835161
30
0
40
1.5499999999999936
210
0
220
0
230
1
0
CIRCLE
5
141
100
AcDbEntity
8
0
100
AcDbCircle
10
-147.52980946658849
20
114.83086627307034
30
0
40
1.549999999999996
210
0
220
0
230
1
0
LINE
5
142
100
AcDbEntity
8
0
100
AcDbLine
10
-140.04138960666413
20
113.56953090098202
30
0
11
-140.01255106339798
21
113.59281971259534
31
-8.683230310067685e-22
0
LINE
5
143
100
AcDbEntity
8
0
100
AcDbLine
10
-77.593998490806854
20
136.90285095827295
30
1.1219914338166271e-22
11
-77.59399848681204
21
135.40285095827295
31
1.1476303560104747e-22
0
LINE
5
144
100
AcDbEntity
8
0
100
AcDbLine
10
-77.593998464174717
20
126.90285095560981
30
1.2929175818211302e-22
11
-77.593998468169545
21
128.40285095560981
31
1.2672786596272827e-22
0
LINE
5
145
100
AcDbEntity
8
0
100
AcDbLine
10
-77.593998468169545
20
128.40285095560981
30
1.2672786596272827e-22
11
-80.133998468169537
21
128.40285094884524
31
1.2672786596272827e-22
0
LINE
5
146
100
AcDbEntity
8
0
100
AcDbLine
10
-77.59399848681204
20
135.40285095827295
30
1.1476303560104747e-22
11
-80.133998486812033
21
135.40285095150838
31
1.1476303560104747e-22
0
LINE
5
147
100
AcDbEntity
8
0
100
AcDbLine
10
-80.133998486812033
20
135.40285095150838
30
1.1476303560104747e-22
11
-80.133998468169537
21
128.40285094884524
31
1.2672786596272827e-22
0
CIRCLE
5
148
100
AcDbEntity
8
0
100
AcDbCircle
10
-71.699998397380114
20
145.39999675005674
30
0
40
1.5500000000000043
210
0
220
0
230
1
0
CIRCLE
5
149
100
AcDbEntity
8
0
100
AcDbCircle
10
-83.699998129159212
20
145.39999675005674
30
0
40
1.5499999999999894
210
0
220
0
230
1
0
ENDSEC
0
SECTION
2
OBJECTS
0
DICTIONARY
5
C
100
AcDbDictionary
3
ACAD_GROUP
350
D
3
ACAD_MLINESTYLE
350
17
0
DICTIONARY
5
D
100
AcDbDictionary
0
DICTIONARY
5
1A
330
C
100
AcDbDictionary
0
DICTIONARY
5
17
100
AcDbDictionary
0
ENDSEC
0
EOF
