0
SECTION
2
HEADER
9
$INSUNITS
70
4
9
$ACADVER
1
AC1014
9
$HANDSEED
5
FFFF
0
ENDSEC
0
SECTION
2
TABLES
0
TABLE
2
VPORT
5
8
100
AcDbSymbolTable
0
ENDTAB
0
TABLE
2
LTYPE
5
5
100
AcDbSymbolTable
0
LTYPE
5
14
100
AcDbSymbolTableRecord
100
AcDbLinetypeTableRecord
2
BYBLOCK
70
0
0
LTYPE
5
15
100
AcDbSymbolTableRecord
100
AcDbLinetypeTableRecord
2
BYLAYER
70
0
0
ENDTAB
0
TABLE
2
LAYER
5
2
100
AcDbSymbolTable
70
2
0
LAYER
5
50
100
AcDbSymbolTableRecord
100
AcDbLayerTableRecord
2
0
70
0
6
CONTINUOUS
0
ENDTAB
0
TABLE
2
STYLE
5
3
100
AcDbSymbolTable
70
1
0
STYLE
5
11
100
AcDbSymbolTableRecord
100
AcDbTextStyleTableRecord
2
STANDARD
70
0
0
ENDTAB
0
TABLE
2
VIEW
5
6
100
AcDbSymbolTable
70
0
0
ENDTAB
0
TABLE
2
UCS
5
7
100
AcDbSymbolTable
70
0
0
ENDTAB
0
TABLE
2
APPID
5
9
100
AcDbSymbolTable
70
2
0
APPID
5
12
100
AcDbSymbolTableRecord
100
AcDbRegAppTableRecord
2
ACAD
70
0
0
ENDTAB
0
TABLE
2
DIMSTYLE
5
A
100
AcDbSymbolTable
70
1
0
ENDTAB
0
TABLE
2
BLOCK_RECORD
5
1
100
AcDbSymbolTable
70
1
0
BLOCK_RECORD
5
1F
100
AcDbSymbolTableRecord
100
AcDbBlockTableRecord
2
*MODEL_SPACE
0
BLOCK_RECORD
5
1B
100
AcDbSymbolTableRecord
100
AcDbBlockTableRecord
2
*PAPER_SPACE
0
ENDTAB
0
ENDSEC
0
SECTION
2
BLOCKS
0
BLOCK
5
20
100
AcDbEntity
100
AcDbBlockBegin
2
*MODEL_SPACE
0
ENDBLK
5
21
100
AcDbEntity
100
AcDbBlockEnd
0
BLOCK
5
1C
100
AcDbEntity
100
AcDbBlockBegin
2
*PAPER_SPACE
0
ENDBLK
5
1D
100
AcDbEntity
100
AcDbBlockEnd
0
ENDSEC
0
SECTION
2
ENTITIES
0
LWPOLYLINE
5
100
100
AcDbEntity
8
0
100
AcDbPolyline
90
16
70
1
43
0.0
10
-139.73257698674524
20
-115.25753254151184
42
-0.1893917351979684
10
-140.00000208729102
20
-114.57684611066448
10
-140.00000208682286
20
-113.15998331889944
42
0.41421356246981561
10
-142.00000208682286
20
-111.1599833182382
10
-153.0096827682531
20
-111.15998893029591
42
0.4127350487648499
10
-155.00965624543232
20
-113.14988879540935
10
-155.02981008313589
20
-117.14064355944984
42
-0.41421356237312623
10
-154.52981008313594
20
-117.64064355944981
10
-154.52981008313594
20
-123.44064355944981
42
-0.41421356237306384
10
-155.02981008313591
20
-123.94064355944977
10
-154.9996151147464
20
-130.50021451447859
42
0.41421356237310281
10
-152.9996151147464
20
-132.50021451447856
10
-140.96860516198444
20
-132.5002145144789
42
-0.20823695824518543
10
-139.50466075679708
20
-133.13754552366706
10
-136.6416396585094
20
-136.21335024736371
42
0.99955759599479088
10
-127.85435704622118
20
-128.04122469182803
0
LWPOLYLINE
5
101
100
AcDbEntity
8
0
100
AcDbPolyline
90
4
70
1
43
0.0
10
-147.52981008313589
20
-123.44064355944981
42
0.99999999999999989
10
-146.52981008313594
20
-123.44064355944981
10
-146.52981008313591
20
-117.64064355944981
42
0.99999999999999989
10
-147.52981008313589
20
-117.64064355944984
0
CIRCLE
5
102
100
AcDbEntity
8
0
100
AcDbCircle
10
-147.54139021676127
20
-114.76951611164841
30
0
40
1.5000000000000002
210
0
220
0
230
1
0
LWPOLYLINE
5
103
100
AcDbEntity
8
0
100
AcDbPolyline
90
4
70
1
43
0.0
10
-144.52981008313594
20
-117.64064355944981
42
0.99999999999999989
10
-145.52981008313589
20
-117.64064355944981
10
-145.52981008313589
20
-123.44064355944981
42
0.99999999999999989
10
-144.52981008313594
20
-123.44064355944981
0
LWPOLYLINE
5
104
100
AcDbEntity
8
0
100
AcDbPolyline
90
4
70
1
43
0.0
10
-148.52981008313594
20
-123.44064355944981
10
-148.52981008313594
20
-117.64064355944981
42
0.99999999999999989
10
-149.52981008313589
20
-117.64064355944981
10
-149.52981008313589
20
-123.44064355944981
42
0.99999999999999989
0
LWPOLYLINE
5
105
100
AcDbEntity
8
0
100
AcDbPolyline
90
4
70
1
43
0.0
10
-150.52981008313591
20
-123.44064355944981
10
-150.52981008313591
20
-117.64064355944981
42
0.99999999999999989
10
-151.52981008313589
20
-117.64064355944981
10
-151.52981008313589
20
-123.44064355944981
42
0.99999999999999989
0
LWPOLYLINE
5
106
100
AcDbEntity
8
0
100
AcDbPolyline
90
4
70
1
43
0.0
10
-141.52981008313589
20
-123.44064355944981
42
0.99999999999999989
10
-140.52981008313594
20
-123.44064355944981
10
-140.52981008313594
20
-117.64064355944981
42
0.99999999999999989
10
-141.52981008313589
20
-117.64064355944981
0
LWPOLYLINE
5
107
100
AcDbEntity
8
0
100
AcDbPolyline
90
4
70
1
43
0.0
10
-142.52981008313594
20
-123.44064355944981
10
-142.52981008313594
20
-117.64064355944981
42
0.99999999999999989
10
-143.52981008313589
20
-117.64064355944981
10
-143.52981008313589
20
-123.44064355944981
42
0.99999999999999989
0
LWPOLYLINE
5
108
100
AcDbEntity
8
0
100
AcDbPolyline
90
4
70
1
43
0.0
10
-153.52981008313589
20
-123.44064355944981
42
0.99999999999999989
10
-152.52981008313594
20
-123.44064355944981
10
-152.52981008313594
20
-117.64064355944981
42
0.99999999999999989
10
-153.52981008313589
20
-117.64064355944981
0
CIRCLE
5
109
100
AcDbEntity
8
0
100
AcDbCircle
10
-147.52980946658849
20
-126.76913372692965
30
0
40
1.4999999999999929
210
0
220
0
230
1
0
CIRCLE
5
110
100
AcDbEntity
8
0
100
AcDbCircle
10
-132.24980644294598
20
-132.12534327492909
30
0
40
1.4999999999999916
210
0
220
0
230
1
0
ENDSEC
0
SECTION
2
OBJECTS
0
DICTIONARY
5
C
100
AcDbDictionary
3
ACAD_GROUP
350
D
3
ACAD_MLINESTYLE
350
17
0
DICTIONARY
5
D
100
AcDbDictionary
0
DICTIONARY
5
1A
330
C
100
AcDbDictionary
0
DICTIONARY
5
17
100
AcDbDictionary
0
ENDSEC
0
EOF
