0
SECTION
2
HEADER
9
$INSUNITS
70
4
9
$ACADVER
1
AC1014
9
$HANDSEED
5
FFFF
0
ENDSEC
0
SECTION
2
TABLES
0
TABLE
2
VPORT
5
8
100
AcDbSymbolTable
0
ENDTAB
0
TABLE
2
LTYPE
5
5
100
AcDbSymbolTable
0
LTYPE
5
14
100
AcDbSymbolTableRecord
100
AcDbLinetypeTableRecord
2
BYBLOCK
70
0
0
LTYPE
5
15
100
AcDbSymbolTableRecord
100
AcDbLinetypeTableRecord
2
BYLAYER
70
0
0
ENDTAB
0
TABLE
2
LAYER
5
2
100
AcDbSymbolTable
70
2
0
LAYER
5
50
100
AcDbSymbolTableRecord
100
AcDbLayerTableRecord
2
0
70
0
6
CONTINUOUS
0
ENDTAB
0
TABLE
2
STYLE
5
3
100
AcDbSymbolTable
70
1
0
STYLE
5
11
100
AcDbSymbolTableRecord
100
AcDbTextStyleTableRecord
2
STANDARD
70
0
0
ENDTAB
0
TABLE
2
VIEW
5
6
100
AcDbSymbolTable
70
0
0
ENDTAB
0
TABLE
2
UCS
5
7
100
AcDbSymbolTable
70
0
0
ENDTAB
0
TABLE
2
APPID
5
9
100
AcDbSymbolTable
70
2
0
APPID
5
12
100
AcDbSymbolTableRecord
100
AcDbRegAppTableRecord
2
ACAD
70
0
0
ENDTAB
0
TABLE
2
DIMSTYLE
5
A
100
AcDbSymbolTable
70
1
0
ENDTAB
0
TABLE
2
BLOCK_RECORD
5
1
100
AcDbSymbolTable
70
1
0
BLOCK_RECORD
5
1F
100
AcDbSymbolTableRecord
100
AcDbBlockTableRecord
2
*MODEL_SPACE
0
BLOCK_RECORD
5
1B
100
AcDbSymbolTableRecord
100
AcDbBlockTableRecord
2
*PAPER_SPACE
0
ENDTAB
0
ENDSEC
0
SECTION
2
BLOCKS
0
BLOCK
5
20
100
AcDbEntity
100
AcDbBlockBegin
2
*MODEL_SPACE
0
ENDBLK
5
21
100
AcDbEntity
100
AcDbBlockEnd
0
BLOCK
5
1C
100
AcDbEntity
100
AcDbBlockBegin
2
*PAPER_SPACE
0
ENDBLK
5
1D
100
AcDbEntity
100
AcDbBlockEnd
0
ENDSEC
0
SECTION
2
ENTITIES
0
ARC
5
100
100
AcDbEntity
8
0
100
AcDbCircle
10
70.029810281577312
20
150.85944157632954
30
0
40
2.0000001291974496
210
0
220
0
230
1
100
AcDbArc
50
90.00000370123027
51
179.99999618180817
0
LINE
5
101
100
AcDbEntity
8
0
100
AcDbLine
10
70.029810152379994
20
152.85944170552699
30
0
11
134.99894810823034
21
152.85944170552352
31
0
0
ARC
5
102
100
AcDbEntity
8
0
100
AcDbCircle
10
134.99894810823025
20
150.85944170552355
30
0
40
1.9999999999999574
210
-0
220
0
230
1
100
AcDbArc
50
0
51
89.999999999997556
0
LINE
5
103
100
AcDbEntity
8
0
100
AcDbLine
10
136.99894806466378
20
134.50035648484152
30
0
11
136.99894810823022
21
150.85944170019729
31
0
0
ARC
5
104
100
AcDbEntity
8
0
100
AcDbCircle
10
138.99894806466384
20
134.50035647951535
30
0
40
2.0000000000000639
210
0
220
0
230
1
100
AcDbArc
50
180
51
269.99999984740748
0
LINE
5
105
100
AcDbEntity
8
0
100
AcDbLine
10
138.99894805933735
20
132.50035647951529
30
0
11
153.02981010348554
21
132.50035644214802
31
0
0
ARC
5
106
100
AcDbEntity
8
0
100
AcDbCircle
10
153.02981009815915
20
130.50035644214807
30
0
40
1.9999999999999396
210
-0
220
0
230
1
100
AcDbArc
50
0
51
89.99999984740991
0
LINE
5
107
100
AcDbEntity
8
0
100
AcDbLine
10
155.02981009815909
20
130.50035643682165
30
0
11
155.02981005197796
21
113.15998328348896
31
0
0
ARC
5
108
100
AcDbEntity
8
0
100
AcDbCircle
10
153.02981005197799
20
113.15998328881533
30
0
40
1.9999999999999751
210
0
220
0
230
1
100
AcDbArc
50
269.99999984740828
51
360
0
LINE
5
109
100
AcDbEntity
8
0
100
AcDbLine
10
142.04138960024699
20
111.15998331807988
30
0
11
153.02981004665153
21
111.15998328881534
31
0
0
CIRCLE
5
110
100
AcDbEntity
8
0
100
AcDbCircle
10
147.52980946658849
20
114.83086627307034
30
0
40
1.549999999999996
210
0
220
-0
230
1
0
CIRCLE
5
111
100
AcDbEntity
8
0
100
AcDbCircle
10
147.54139021676122
20
126.83048388835161
30
0
40
1.5499999999999934
210
0
220
-0
230
1
0
CIRCLE
5
112
100
AcDbEntity
8
0
100
AcDbCircle
10
132.18352072886751
20
131.9284228339279
30
0
40
1.600000000000001
210
0
220
-0
230
1
0
CIRCLE
5
113
100
AcDbEntity
8
0
100
AcDbCircle
10
132.18352072886751
20
148.51441565613044
30
0
40
1.5499999999999989
210
0
220
-0
230
1
0
ARC
5
114
100
AcDbEntity
8
0
100
AcDbCircle
10
142.0413896055735
20
113.15998331807997
30
0
40
2.0000000000000639
210
0
220
0
230
1
100
AcDbArc
50
180
51
269.99999984740663
0
ARC
5
115
100
AcDbEntity
8
0
100
AcDbCircle
10
129.18924805659387
20
100.16082015843722
30
0
40
17.249999999999972
210
0
220
-0
230
1
100
AcDbArc
50
51.138655890673775
51
78.84826348746887
0
ARC
5
116
100
AcDbEntity
8
0
100
AcDbCircle
10
129.18924805659378
20
100.16082015843654
30
0
40
17.25000000000065
210
0
220
-0
230
1
100
AcDbArc
50
78.848263487469012
51
89.738620709308606
0
LINE
5
117
100
AcDbEntity
8
0
100
AcDbLine
10
140.04138960666413
20
113.56953090098202
30
0
11
140.04138960557344
21
113.15998332340634
31
0
0
LINE
5
118
100
AcDbEntity
8
0
100
AcDbLine
10
140.01255106339798
20
113.59281971259534
30
0
11
140.04138960666413
21
113.56953090098202
31
0
0
LWPOLYLINE
5
119
100
AcDbEntity
8
0
100
AcDbPolyline
90
8
70
1
43
0.0
10
130.92593339684294
20
118.6108201538123
10
129.50000189576772
20
118.61082015760965
42
-0.41421356316050506
10
128.00000189976532
20
120.11082016563375
10
128.00000189930486
20
124.61082016153354
42
-0.41421356397797693
10
129.50000190330005
20
126.11082015761656
10
130.92593341681703
20
126.11082015381899
42
-0.41421356237300139
10
132.42593341282222
20
124.61082014982429
10
132.42593340083724
20
120.1108201498175
42
-0.41421356237311241
0
LWPOLYLINE
5
120
100
AcDbEntity
8
0
100
AcDbPolyline
90
4
70
1
43
0.0
10
123.39744970310525
20
120.59775002003292
42
0.99999999999999989
10
123.39744970310525
20
123.69775002003291
10
118.39744970310525
20
123.69775002003291
42
0.99999999999999989
10
118.39744970310596
20
120.59775002003292
0
LWPOLYLINE
5
121
100
AcDbEntity
8
0
100
AcDbPolyline
90
4
70
1
43
0.0
10
110.61298311613483
20
123.14295005407826
42
0.99999999999999989
10
110.61298311613483
20
147.14295005407826
10
105.61298311613483
20
147.14295005407826
42
0.99999999999999989
10
105.61298311613483
20
123.14295005407826
0
LWPOLYLINE
5
122
100
AcDbEntity
8
0
100
AcDbPolyline
90
4
70
1
43
0.0
10
92.397449772340181
20
123.69775002004297
10
97.397449772340181
20
123.69775002003973
42
-0.99999999999999989
10
97.397449772337438
20
120.59775002003974
10
92.397449772338192
20
120.59775002004299
42
-0.99999999999999989
0
LWPOLYLINE
5
123
100
AcDbEntity
8
0
100
AcDbPolyline
90
8
70
1
43
0.0
10
77.593998212615531
20
129.40285106770747
42
0.41421354806435356
10
78.593998126204866
20
128.40285103015046
10
79.343998126205861
20
128.4028509653435
42
0.41421357668167536
10
80.343998212615531
20
129.40285092778601
10
80.343998435296811
20
134.40285090209724
42
0.41421357668167791
10
79.343998437959655
20
135.40285095361227
10
78.59399843795866
20
135.40285095560969
42
0.41421354806435878
10
77.593998435296811
20
134.40285100712521
0
CIRCLE
5
124
100
AcDbEntity
8
0
100
AcDbCircle
10
71.699998397380114
20
145.40312262213897
30
0
40
1.5500000000000078
210
0
220
-0
230
1
0
CIRCLE
5
125
100
AcDbEntity
8
0
100
AcDbCircle
10
83.699998129159212
20
145.40312259550669
30
0
40
1.5499999999999934
210
0
220
-0
230
1
0
LWPOLYLINE
5
126
100
AcDbEntity
8
0
100
AcDbPolyline
90
4
70
1
43
0.0
10
92.39744977235506
20
146.597750089285
10
97.39744977235506
20
146.59775008928176
42
0.99999999999999989
10
97.397449772356708
20
149.69775008928173
10
92.397449772357078
20
149.69775008928499
42
0.99999999999999989
0
LWPOLYLINE
5
127
100
AcDbEntity
8
0
100
AcDbPolyline
90
4
70
1
43
0.0
10
118.39744970310562
20
149.6977500892749
42
0.99999999999999989
10
118.39744970310562
20
146.59775008927494
10
123.39744970310525
20
146.59775008927494
42
0.99999999999999989
10
123.39744970310525
20
149.6977500892749
0
CIRCLE
5
128
100
AcDbEntity
8
0
100
AcDbCircle
10
70.500001065433025
20
124.61616358569678
30
0
40
5.2750000000000004
210
0
220
0
230
1
0
LINE
5
129
100
AcDbEntity
8
0
100
AcDbLine
10
129.26794106267317
20
117.41064066216401
30
0
11
70.508602394142045
21
117.3411686704309
31
0
0
ARC
5
130
100
AcDbEntity
8
0
100
AcDbCircle
10
70.50000106543304
20
124.6161635856968
30
0
40
7.2750000000000092
210
0
220
0
230
1
100
AcDbArc
50
157.79179594419037
51
270.06774157361463
0
LINE
5
131
100
AcDbEntity
8
0
100
AcDbLine
10
63.764686223390079
20
127.36591975280616
30
0
11
67.287974138194627
21
135.9959407231091
31
0
0
LINE
5
132
100
AcDbEntity
8
0
100
AcDbLine
10
68.029810152379866
20
150.85944171085342
30
0
11
68.029809406864103
21
139.77567361352658
31
0
0
ARC
5
133
100
AcDbEntity
8
0
100
AcDbCircle
10
58.029809406864075
20
139.77567428614603
30
0
40
10.00000000000005
210
0
220
0
230
1
100
AcDbArc
50
337.79179594419048
51
359.99999618180811
0
ENDSEC
0
SECTION
2
OBJECTS
0
DICTIONARY
5
C
100
AcDbDictionary
3
ACAD_GROUP
350
D
3
ACAD_MLINESTYLE
350
17
0
DICTIONARY
5
D
100
AcDbDictionary
0
DICTIONARY
5
1A
330
C
100
AcDbDictionary
0
DICTIONARY
5
17
100
AcDbDictionary
0
ENDSEC
0
EOF
